<?xml version="1.0" encoding="UTF-8"?>
<svg width="42px" height="42px" viewBox="0 0 42 42" version="1.1" xmlns="http://www.w3.org/2000/svg" xmlns:xlink="http://www.w3.org/1999/xlink">
    <!-- Generator: Sketch 41.2 (35397) - http://www.bohemiancoding.com/sketch -->
    <title>close-icon</title>
    <desc>Created with Sketch.</desc>
    <defs>
        <filter x="-50%" y="-50%" width="200%" height="200%" filterUnits="objectBoundingBox" id="filter-1">
            <feOffset dx="0" dy="2" in="SourceAlpha" result="shadowOffsetOuter1"></feOffset>
            <feGaussianBlur stdDeviation="5" in="shadowOffsetOuter1" result="shadowBlurOuter1"></feGaussianBlur>
            <feColorMatrix values="0 0 0 0 0   0 0 0 0 0   0 0 0 0 0  0 0 0 0.2 0" type="matrix" in="shadowBlurOuter1" result="shadowMatrixOuter1"></feColorMatrix>
            <feMerge>
                <feMergeNode in="shadowMatrixOuter1"></feMergeNode>
                <feMergeNode in="SourceGraphic"></feMergeNode>
            </feMerge>
        </filter>
    </defs>
    <g id="Plugin" stroke="none" stroke-width="1" fill="none" fill-rule="evenodd">
        <g id="1.3.-Plugin---Blur-Bg" transform="translate(-1189.000000, -711.000000)" fill="#FFFFFF">
            <g id="KoalaAdminChat" filter="url(#filter-1)" transform="translate(1180.000000, 700.000000)">
                <path d="M31.5,28.5 L31.5,16.5082641 C31.5,15.6686549 30.8284271,15 30,15 C29.1657972,15 28.5,15.6752728 28.5,16.5082641 L28.5,28.5 L16.5082641,28.5 C15.6686549,28.5 15,29.1715729 15,30 C15,30.8342028 15.6752728,31.5 16.5082641,31.5 L28.5,31.5 L28.5,43.4917359 C28.5,44.3313451 29.1715729,45 30,45 C30.8342028,45 31.5,44.3247272 31.5,43.4917359 L31.5,31.5 L43.4917359,31.5 C44.3313451,31.5 45,30.8284271 45,30 C45,29.1657972 44.3247272,28.5 43.4917359,28.5 L31.5,28.5 Z" id="close-icon" transform="translate(30.000000, 30.000000) rotate(45.000000) translate(-30.000000, -30.000000) "></path>
            </g>
        </g>
    </g>
</svg>