<?xml version="1.0" encoding="UTF-8"?>
<svg width="686px" height="445px" viewBox="0 0 686 445" version="1.1" xmlns="http://www.w3.org/2000/svg" xmlns:xlink="http://www.w3.org/1999/xlink">
    <!-- Generator: Sketch 41.2 (35397) - http://www.bohemiancoding.com/sketch -->
    <title>Artboard</title>
    <desc>Created with Sketch.</desc>
    <defs>
        <linearGradient x1="50%" y1="0%" x2="50%" y2="100%" id="linearGradient-1">
            <stop stop-color="#199BFF" offset="0%"></stop>
            <stop stop-color="#0B61FF" offset="100%"></stop>
        </linearGradient>
        <linearGradient x1="50%" y1="0%" x2="50%" y2="100%" id="linearGradient-2">
            <stop stop-color="#62B8FF" offset="0%"></stop>
            <stop stop-color="#3381FF" offset="100%"></stop>
        </linearGradient>
    </defs>
    <g id="Desktop" stroke="none" stroke-width="1" fill="none" fill-rule="evenodd">
        <g id="Artboard">
            <g id="KoalaEyes">
                <g id="Earth">
                    <path d="M587,249.264596 L587,249 L655.998123,249 C672.570157,249 686,235.568542 686,219 C686,202.427815 672.567702,189 655.998123,189 L611.003016,189 L584.493968,189 C567.928757,189 554.5,175.572185 554.5,159 C554.5,142.431458 567.938997,129 584.493968,129 L598.996776,129 L610.993551,129 C627.571821,129 641,115.568542 641,99 C641,82.4278145 627.565655,69 610.993551,69 L436.749531,69 L286.499062,69 L74.0018766,69 C57.4298433,69 44,82.4314575 44,99 C44,115.572185 57.4322977,129 74.0018766,129 L129,129 L129,129 L123.001877,129 C106.429843,129 93,142.431458 93,159 C93,175.572185 106.432298,189 123.001877,189 L126.000938,189 L129,189 L138.99563,189 C155.566586,189 169,202.427815 169,219 C169,235.568542 155.568478,249 138.99563,249 L90.2521852,249 L46.0018766,249 C29.4298433,249 16,262.431458 16,279 C16,295.572185 29.4322977,309 46.0018766,309 L129,309 L129,309 L109.001877,309 C92.4298433,309 79,322.431458 79,339 C79,355.572185 92.4322977,369 109.001877,369 L359,369 L608.998123,369 C625.570157,369 639,355.568542 639,339 C639,322.427815 625.567702,309 608.998123,309 L587,309 L587,308.735194 C585.69051,308.909844 584.35436,309 582.99722,309 L508.00278,309 C491.432702,309 478,295.572185 478,279 C478,262.431458 491.437867,249 508.00278,249 L582.99722,249 C584.354413,249 585.690559,249.090082 587,249.264596 Z M95.25,39 C95.25,22.4314575 108.6902,9 125.254798,9 L650.995202,9 C667.566395,9 681,22.4278145 681,39 C681,55.5685425 667.5598,69 650.995202,69 L125.254798,69 C108.683605,69 95.25,55.5721855 95.25,39 Z M61,399 C61,382.431458 74.4237852,369 90.9940497,369 L549.00595,369 C565.571207,369 579,382.427815 579,399 C579,415.568542 565.576215,429 549.00595,429 L90.9940497,429 C74.4287935,429 61,415.572185 61,399 Z" id="Combined-Shape" fill="url(#linearGradient-1)" opacity="0.835389459"></path>
                    <g id="Additional-Elements" opacity="0.300000012" fill="#FFFFFF">
                        <circle id="Oval-11" opacity="0.162430037" cx="416.5" cy="20.5" r="7.5"></circle>
                        <circle id="Oval-11" opacity="0.170184235" cx="392.5" cy="56.5" r="4.5"></circle>
                        <ellipse id="Oval-11" opacity="0.301364272" cx="432" cy="83" rx="7" ry="7"></ellipse>
                        <circle id="Oval-11" opacity="0.184001866" cx="23" cy="64" r="7"></circle>
                        <circle id="Oval-11" opacity="0.149778451" cx="4.5" cy="111.5" r="4.5"></circle>
                        <g id="Group-23" opacity="0.599999964" transform="translate(106.000000, 14.500000) rotate(-120.000000) translate(-106.000000, -14.500000) translate(96.000000, 4.000000)" stroke="#FFFFFF" stroke-width="7" stroke-linecap="round">
                            <path d="M2.38209452e-12,10.3253866 L19.7389208,10.3253866" id="Line"></path>
                            <path d="M-0.00022307219,10.3259541 L19.7386978,10.3259541" id="Line" transform="translate(9.869237, 10.325954) rotate(-270.000000) translate(-9.869237, -10.325954) "></path>
                        </g>
                        <g id="Group-23" opacity="0.46379431" transform="translate(347.000000, 402.000000) rotate(-330.000000) translate(-347.000000, -402.000000) translate(336.000000, 391.000000)" stroke="#FFFFFF" stroke-width="6" stroke-linecap="round">
                            <path d="M1.8189894e-12,10.9700958 L21.9401915,10.9700958" id="Line"></path>
                            <path d="M-9.51061452e-12,10.9700958 L21.9401915,10.9700958" id="Line" transform="translate(10.970096, 10.970096) rotate(-270.000000) translate(-10.970096, -10.970096) "></path>
                        </g>
                        <circle id="Oval-11" opacity="0.223822295" cx="286.5" cy="437.5" r="7.5"></circle>
                        <circle id="Oval-11" opacity="0.135377799" cx="250.5" cy="383.5" r="4.5"></circle>
                        <path d="M450.849383,249.477133 L465.253224,249.477133" id="Line" stroke="#FFFFFF" stroke-width="6" stroke-linecap="round" transform="translate(458.051304, 249.477133) rotate(-15.000000) translate(-458.051304, -249.477133) "></path>
                        <path d="M450.860367,249.48177 L465.264208,249.48177" id="Line" stroke="#FFFFFF" stroke-width="6" stroke-linecap="round" transform="translate(458.062288, 249.481770) rotate(-285.000000) translate(-458.062288, -249.481770) "></path>
                    </g>
                    <g transform="translate(5.000000, 37.000000)">
                        <g id="Path-12-+-Path-13-Mask">
                            <ellipse id="Oval-15" fill="url(#linearGradient-2)" cx="149.868421" cy="170.440789" rx="119" ry="119"></ellipse>
                            <path d="M168.296993,269.237179 C168.296993,269.237179 190.773865,252.132305 187.289897,242.719021 C183.80593,233.305736 134.577114,216.148234 142.398534,194.826045 C150.219954,173.503856 181.648551,184.273367 193.226948,175.80834 C204.805345,167.343313 209.816852,150.870077 221.230992,145.472024 C232.645132,140.073971 233.882865,158.609483 247.646495,150.071876 C261.410125,141.53427 257.242969,103.817402 268.518864,116.139265 C281.774012,116.139265 313.166045,94.0956519 298.85457,152.951306 C284.543096,211.80696 231.291229,269.237175 231.291229,269.237175 L168.296993,269.237179 Z" id="Path-12" fill="#519AFE"></path>
                            <path d="M162.182826,229.48553 C147.463136,220.221792 129.432797,208.363279 134.398534,194.826045 C138.274429,184.259861 147.947504,181.57439 158.129379,180.52368 M171.297119,179.564129 C176.896581,179.091298 181.887432,178.249878 185.226948,175.80834 C196.805345,167.343313 201.816852,150.870077 213.230992,145.472024 C224.645132,140.073971 225.882865,158.609483 239.646495,150.071876 C253.410125,141.53427 249.242969,103.817402 260.518864,116.139265 C273.774012,116.139265 305.166045,94.0956519 290.85457,152.951306 C276.543096,211.80696 223.291229,269.237175 223.291229,269.237175 L160.296993,269.237179 L160.296993,269.237179 C160.296993,269.237179 182.773865,252.132305 179.289897,242.719021 C178.410923,240.344131 174.620247,237.476315 169.568613,234.173054" id="Path-12" stroke="#1E84F5" stroke-width="4" stroke-linecap="round"></path>
                            <path d="M65.5865738,95.2515368 C83.4622712,103.439609 76.2499436,62.8765018 94.4238919,73.2436016 C98.5716051,75.6096124 101.88508,78.2854651 104.66406,81.0960776 C106.457673,82.9101068 108.028633,84.7802727 109.457529,86.6595024 C115.51532,94.6264799 119.019758,102.756363 126.111596,107.462304 C129.028011,109.397554 133.823199,110.553915 139.147325,110.840079 C143.047026,111.049682 147.2305,110.792428 151.167313,110.032437 C162.785013,107.78967 172.254632,101.16874 165.944268,89.2475273 C154.576135,67.7714421 172.466397,64.8911877 178.340121,53.3864436 C184.213845,41.8816995 189.204952,29.0454314 183.154291,11.8686429 C177.103629,-5.30814549 154.576132,1.7282966 154.576132,1.7282966 L2.94393743,67.7714446 C2.94393743,67.7714446 47.7108764,87.0634645 65.5865738,95.2515368 Z" id="Path-13" fill="#6FB9FD"></path>
                            <path d="M107.457529,91.6595024 C113.51532,99.6264799 117.019758,107.756363 124.111596,112.462304 C127.028011,114.397554 131.823199,115.553915 137.147325,115.840079 M149.167313,115.032437 C160.785013,112.78967 170.254632,106.16874 163.944268,94.2475273 C152.576135,72.7714421 170.466397,69.8911877 176.340121,58.3864436 C182.213845,46.8816995 187.204952,34.0454314 181.154291,16.8686429 C175.103629,-0.308145488 152.576132,6.7282966 152.576132,6.7282966 L0.943937428,72.7714446 C0.943937428,72.7714446 45.7108764,92.0634645 63.5865738,100.251537 L63.5865738,100.251537 C81.4622712,108.439609 74.2499436,67.8765018 92.4238919,78.2436016 C96.5716051,80.6096124 99.8850799,83.2854651 102.66406,86.0960776" id="Path-13" stroke="#1E84F5" stroke-width="4" stroke-linecap="round"></path>
                        </g>
                        <path d="M227.768253,65.4988913 C206.351038,44.7620323 177.165885,32 145,32 C79.2781148,32 26,85.2781148 26,151 C26,196.561226 51.6046966,236.142155 89.2096155,256.138313 M114.781826,266.129458 C124.431301,268.655237 134.558607,270 145,270 C210.721885,270 264,216.721885 264,151 C264,127.77288 257.345437,106.100016 245.838836,87.7839349 M237.295831,75.8776309 C236.262448,74.6095467 235.203454,73.3631624 234.119635,72.1392666" id="Mask" stroke="#1E84F5" stroke-width="4" stroke-linecap="round"></path>
                        <path d="M186.280869,90.3158832 C197.757809,98.0861624 219.204482,100.894945 207.715728,78.7506586 C196.226974,56.6063725 174.803928,82.545604 186.280869,90.3158832 Z" id="Path-13" stroke="#1E84F5" stroke-width="4" fill-opacity="0.2" fill="#97E5C9"></path>
                        <path d="M127.843857,249.944571 C138.563072,251.042157 135.670492,235.616599 116.116209,223.428078 C96.5619271,211.239557 117.124643,248.846985 127.843857,249.944571" id="Path-13" stroke="#1E84F5" stroke-width="4" fill-opacity="0.2" fill="#97E5C9"></path>
                    </g>
                </g>
                <g transform="translate(132.000000, 182.000000)">
                    <ellipse id="Combined-Shape" fill="#FFFFFF" cx="150" cy="105" rx="15" ry="15"></ellipse>
                    <path d="M105.023376,42.6204365 C100.951716,22.9093532 85.5215901,6.27647957 64.265716,1.36917435 C35.3735405,-5.30110995 6.65872613,12.2183974 0.12938309,40.5000893" id="Path" stroke="#FFFFFF" stroke-width="22.5" stroke-linecap="round" transform="translate(52.500000, 21.186532) scale(-1, 1) translate(-52.500000, -21.186532) "></path>
                    <path d="M194.976624,42.6204365 C199.048284,22.9093532 214.47841,6.27647957 235.734284,1.36917435 C264.62646,-5.30110995 293.341274,12.2183974 299.870617,40.5000893" id="Path" stroke="#FFFFFF" stroke-width="22.5" stroke-linecap="round"></path>
                </g>
            </g>
        </g>
    </g>
</svg>