<?xml version="1.0" encoding="UTF-8"?>
<svg width="60px" height="60px" viewBox="0 0 60 60" version="1.1" xmlns="http://www.w3.org/2000/svg" xmlns:xlink="http://www.w3.org/1999/xlink">
    <!-- Generator: Sketch 41.2 (35397) - http://www.bohemiancoding.com/sketch -->
    <title>KoalaAdminChat</title>
    <desc>Created with Sketch.</desc>
    <defs>
        <linearGradient x1="50%" y1="0%" x2="50%" y2="100%" id="linearGradient-1">
            <stop stop-color="#389BFF" offset="0%"></stop>
            <stop stop-color="#0054FF" offset="100%"></stop>
        </linearGradient>
    </defs>
    <g id="Desktop" stroke="none" stroke-width="1" fill="none" fill-rule="evenodd">
        <g id="4.1.-Measure-(Analytics-Dashboard)" transform="translate(-1360.000000, -820.000000)">
            <g id="KoalaAdminChat" transform="translate(1360.000000, 820.000000)">
                <path d="M39.0815,0 C45.105,0 48.116,0 51.3585,1.025 C54.8985,2.3135 57.6865,5.1015 58.975,8.6415 C60,11.8835 60,14.8955 60,20.9185 L60,39.0815 C60,45.105 60,48.116 58.975,51.3585 C57.6865,54.8985 54.8985,57.6865 51.3585,58.9745 C48.116,60 45.105,60 39.0815,60 L20.9185,60 C14.895,60 11.8835,60 8.6415,58.9745 C5.1015,57.6865 2.3135,54.8985 1.025,51.3585 C0,48.116 0,45.105 0,39.0815 L0,20.9185 C0,14.8955 0,11.8835 1.025,8.6415 C2.3135,5.1015 5.1015,2.3135 8.6415,1.025 C11.8835,0 14.895,0 20.9185,0 L39.0815,0 Z" id="Icon" fill="url(#linearGradient-1)"></path>
                <ellipse id="Combined-Shape" fill="#FFFFFF" cx="30" cy="48" rx="2" ry="2"></ellipse>
                <path d="M24.0031169,39.6827249 C23.4602289,37.0545804 21.4028787,34.8368639 18.5687621,34.1825566 C14.7164721,33.2931853 10.8878302,35.6291197 10.0172511,39.4000119" id="Path" stroke="#FFFFFF" stroke-width="3" stroke-linecap="round" fill-opacity="0" fill="#FFFFFF" transform="translate(17.000000, 36.824871) scale(-1, 1) translate(-17.000000, -36.824871) "></path>
                <path d="M35.9968831,39.6827249 C36.5397711,37.0545804 38.5971213,34.8368639 41.4312379,34.1825566 C45.2835279,33.2931853 49.1121698,35.6291197 49.9827489,39.4000119" id="Path" stroke="#FFFFFF" stroke-width="3" stroke-linecap="round" fill-opacity="0" fill="#FFFFFF"></path>
            </g>
        </g>
    </g>
</svg>